<?xml version="1.0" encoding="UTF-8" standalone="no"?><!DOCTYPE svg PUBLIC "-//W3C//DTD SVG 1.1//EN" "http://www.w3.org/Graphics/SVG/1.1/DTD/svg11.dtd"><svg width="100%" height="100%" viewBox="0 0 151 302" version="1.1" xmlns="http://www.w3.org/2000/svg" xmlns:xlink="http://www.w3.org/1999/xlink" xml:space="preserve" xmlns:serif="http://www.serif.com/" style="fill-rule:evenodd;clip-rule:evenodd;stroke-linejoin:round;stroke-miterlimit:2;"><g><path d="M35.932,272.91c-5.992,-0.887 -6.172,-0.547 -10.918,-4.197c-7.44,-16.929 1.899,-33.118 -6.971,-31.84c-15.004,2.162 -21.197,-61.081 11.209,-96.17c3.284,-3.556 0.286,-4.096 -5.677,-22.996c-1.613,-5.114 -11.354,-2.533 -17.223,-11.352c-13.86,-20.827 -1.072,-28.839 1.345,-30.519c2.882,-2.002 -0.122,-8.545 1.08,-24.255c1.529,-19.968 19.055,-32.88 27.894,-37.648c19.318,-10.422 19.233,-10.52 21.054,-11.073c26.473,-8.033 39.943,3.058 47.009,6.383c55.787,26.251 30.122,61.33 37.142,66.138c18.898,12.944 0.047,33.304 -0.975,34.245c-7.375,6.788 -12.39,1.556 -14.617,9.996c-3.247,12.311 -8.776,16.9 -5.003,21.21c21.716,24.806 28.878,61.418 18.139,91.621c-3.643,10.246 -11.243,0.707 -11.918,4.867c-0.314,1.94 3.699,14.234 -1.933,31.381c-7.331,5.914 -9.739,2.022 -11.365,5.067c-1.671,3.13 16.201,18.549 -8.214,22.504c-21.539,-1.918 -21.947,-12.159 -22.746,-17.556c-0.565,-3.814 -15.52,-1.971 -15.614,-1.932c-3.511,1.481 4.72,16.656 -23.018,19.372c-3.301,-0.341 -3.213,-0.129 -6.535,-1.028c-14.052,-8.183 -1.67,-15.347 -2.143,-22.218Z" style="fill:#48372c;"/><path d="M70.637,91.184c2.273,-7.539 1.943,-7.679 1.805,-7.912c-3.696,-6.213 -7.267,15.021 -7.507,16.447c-0.542,3.221 -1.908,1.961 -7.122,3.951c0.948,-2.064 0.457,-2.217 1.845,-4.015c0.104,-0.135 1.121,-1.453 1.207,-1.765c0.199,-0.729 -1.831,-3.116 -8.054,4.932c-8.095,11.642 -6.666,15.595 -11.594,13.535c-4.166,-12.74 -6.34,-11.313 -8.567,-12.681c-2.596,-1.595 -2.686,-0.19 -3.583,-0.253c-4.84,-5.631 -10.913,-22.898 -2.559,-38.582c7.079,-13.29 -0.127,-13.851 -0.358,-21.609c-0.418,-13.988 19.585,-21.902 21.941,-22.834c13.035,-5.157 13.444,11.568 37.7,3.77c4.097,-1.317 10.963,-12.577 31.588,6.06c15.305,13.83 -1.553,19.893 4.062,31.031c6.655,13.201 6.702,13.515 5.091,28.506c-0.909,8.458 -2.551,7.779 -6.769,15.16c-0.899,-0.364 -1.231,-1.617 -2.13,-1.981c-0.08,-0.032 -2.91,1.432 -3.265,1.727c-4.371,3.628 -2.827,4.429 -3.177,10.18c-2.216,0.764 -1.71,1.557 -3.892,2.303c-1.382,0.472 -1.965,0.273 -10.88,-14.656c-1.953,-2.152 -1.735,-2.278 -4.015,-4.073c-3.195,-2.515 -4.786,-0.329 -3.212,1.272c0.533,0.542 1.546,0.593 1.895,1.269c0.374,0.724 -0.351,1.72 0.023,2.444c-5.015,-1.26 -4.889,-1.477 -9.965,-1.94c-0.794,-0.644 -0.878,-1.927 -1.672,-2.571c-1.034,-0.839 -2.959,0.869 -8.834,-7.713Z" style="fill:#dcab85;"/><path d="M54.179,154.832c-8.764,-10.165 -8.648,-10.42 -9.514,-10.537c-1.782,-0.24 -1.618,0.44 -3.389,0.317c-3.4,-0.237 -13.166,-27.354 -14.06,-29.836c-7.81,-21.686 5.923,2.538 7.239,3.376c9.531,6.069 12.921,0.642 13.493,-0.273c12.064,-19.316 21.257,-9.606 29.918,-11.36c23.925,-4.843 20.947,16.952 29.795,14.604c9.698,-2.573 9.018,-4.066 13.923,-12.746c6.85,-12.123 1.247,9.178 -2.108,17.866c-7.138,18.487 -10.064,18.357 -11.803,18.28c-3.621,-0.161 -3.348,0.823 -11.403,10.07c-4.034,-1.827 -4.06,-2.453 -3.544,-6.848c1.018,-8.665 -6.877,1.562 -8.09,10.171c-3.833,3.736 -3.75,3.799 -4.092,4.114c-6.842,6.305 -8.101,2.523 -14.95,-3.716c-0.18,-0.992 0.783,-1.971 0.604,-2.963c-0.109,-0.602 -1.037,-0.711 -1.363,-1.229c-0.49,-0.777 -0.654,-1.718 -1.023,-2.559c-1.45,-3.306 -1.337,-3.218 -1.465,-3.493c-1.651,-3.519 -3.622,-2.301 -3.553,-0.772c0.031,0.688 0.096,3.265 0.103,3.549c0.092,3.679 -2.571,1.716 -2.654,1.749c-0.94,0.38 -1.124,1.854 -2.064,2.234Z" style="fill:#d9cdc0;"/><path d="M88.4,221.964c0.989,3.269 0.814,3.162 1.366,6.653c1.651,2.19 10.913,11.823 24.422,3.521c1.325,1.719 8.232,10.683 0.91,27.116c-0.44,0.986 -0.181,1.252 -10.768,11.17c-4.608,0.568 -38.601,4.755 -58.031,0.06c-2.364,-0.571 -7.432,-1.796 -5.531,-29.898c0.413,-6.107 2.604,-4.801 8.688,-5.621c2.92,-0.394 6.396,-2.127 6.92,-2.388c4.628,-2.308 3.073,-3.569 4.911,-8.465c18.237,3.885 18.221,0.232 21.52,0.136c0.585,-0.017 1.065,0.522 1.642,0.622c1.29,0.225 1.552,0.032 1.659,-0.046c1.509,-1.111 0.746,-1.723 2.292,-2.861Z" style="fill:#847655;"/><path d="M31.147,145.382c1.696,1.639 20.642,19.947 21.778,19.863c0.842,-0.063 1.294,-1.299 2.136,-1.362c3.35,6.345 9.191,12.795 9.605,13.67c0.585,1.236 1.469,3.107 -8.742,14.69c-5.072,5.753 -5.601,8.231 -7.964,5.26c-5.742,-7.221 -4.84,-25.009 -5.356,-31.433c-0.27,-3.368 -4.082,-8.164 -4.043,-3.255c0.065,8.252 0.461,8.11 0.568,16.309c-4.218,-4.114 -4.084,-5.218 -5.961,-4.419c-0.703,0.299 -2.454,1.851 5.516,7.797c-0.132,1.193 -0.263,2.385 -0.395,3.578c-0.935,-0.637 -10.015,-6.83 -13.335,-4.713c-3.393,2.163 3.171,3.528 12.329,6.96c7.187,6.564 9.562,17.343 9.113,17.554c-2.27,1.067 -8.923,-8.123 -22.495,10.737c-1.076,-1.322 -6.664,-8.188 -9.82,-18.902c-1.04,-3.532 -2.239,-2.477 -3.183,-3.521c0.648,-4.178 5.564,-35.852 20.249,-48.814Z" style="fill:#847656;"/><path d="M112.114,148.723c4.432,-3.268 4.113,-6.246 6.981,-3.859c13.147,10.94 19.017,40.572 19.772,44.385c-0.427,0.778 -1.676,0.855 -2.103,1.633c-0.739,1.347 1.365,2.016 -5.484,18.4c-0.782,1.871 -0.922,1.766 -4.694,7.349c-13.55,-17.369 -20.245,-9.891 -22.347,-12.394c-1.169,-1.391 0.003,-1.51 4.439,-10.358c1.731,-3.452 1.933,-3.198 4.492,-5.67c11.506,-4.423 17.138,-4.359 12.531,-6.851c-1.574,-0.851 -8.843,1.518 -9.585,1.76c-0.379,-1.047 -2.145,-1.143 -2.524,-2.19c-0.1,-0.276 5.483,-4.48 3.636,-5.901c-1.514,-1.165 -1.576,0.08 -6.313,4.265c0.102,-18.242 0.833,-19.101 -0.699,-19.132c-0.183,-0.004 -0.148,0.082 -2.001,1.106c-0.402,-1.366 -0.805,-2.733 -1.207,-4.099c4.485,-4.7 4.427,-4.694 4.839,-5.075c2.12,-1.963 0.244,-3.082 0.267,-3.368Z" style="fill:#867857;"/><path d="M61.138,18.487c-5.054,-3.666 -8.184,-5.734 -21.922,2.398c-1.726,1.022 -13.761,8.146 -16.436,18.931c-2.463,9.93 5.009,9.983 1.778,19.882c-6.132,-0.782 -6.064,-0.247 -11.869,1.907c0.065,-1.722 0.131,-3.444 0.196,-5.166c0.697,-0.141 8.275,-1.675 8.223,-3.383c-0.022,-0.729 0.345,-1.697 -0.202,-2.179c-0.37,-0.326 -7.53,3.619 -8.167,3.969c1.931,-14.765 1.121,-25.922 43.881,-47.394c6.277,-3.152 23.547,-5.595 35.834,-0.227c49.213,21.501 44.224,41.741 45.245,54.292c-5.945,-2.753 -6.155,-3.771 -12.186,-1.419c-4.616,-12.612 9.279,-16 -3.156,-29.942c-4.579,-5.134 -12.429,-10.348 -16.206,-12.127c-12.865,-6.059 -15.609,-0.684 -18.139,0.734c-0.656,-1.089 -2.069,-0.28 -2.206,-3.66c-0.004,-0.106 -0.041,-1.011 -0.241,-1.306c-2.504,-3.695 -4.033,6.052 -4.131,6.672c-6.07,3.558 -8.366,2.247 -13.645,-0.377c-0.179,-0.815 -2.165,-9.849 -3.338,-9.881c-2.54,-0.068 -2.096,2.738 -2.05,3.027c0.205,1.294 1.316,2.524 1.009,3.798c-0.21,0.873 -2.061,0.576 -2.271,1.449Z" style="fill:#daccc0;"/><path d="M107.009,157.166c0.402,1.366 0.805,2.733 1.207,4.099c-3.572,17.467 1.175,19.564 -3.689,31.341c-0.958,0.076 -1.351,-1.801 -2.309,-1.724c-0.41,0.033 -0.722,3.239 -4.671,4.505c-8.211,2.632 -7.926,3.242 -16.416,4.578c-1.356,0.213 -1.553,0.374 -1.659,0.462c-1.099,0.9 -0.473,1.284 -1.649,2.247c-6.29,0.147 -11.23,0.752 -7.322,-3.931c9.216,-11.044 21.5,-30.692 22.763,-32.291l0.715,-0.888c0.684,-0.14 1.401,0.33 2.085,0.19c2.763,-0.567 10.151,-7.808 10.945,-8.587Z" style="fill:#867857;"/><path d="M44.61,296.156c27.738,-2.716 19.507,-17.891 23.018,-19.372c0.095,-0.04 15.049,-1.882 15.614,1.932c0.8,5.397 1.208,15.638 22.746,17.556c-0.384,0.381 -1.238,-0.4 -1.622,-0.019c-1.235,1.224 0.073,3.374 -4.985,3.449c-5.209,0.077 -18.967,2.747 -44.764,0.243c-4.298,-0.417 -4.54,1.408 -8.33,-0.601c-1.061,-0.562 -0.616,-2.626 -1.677,-3.189Z" style="fill:#cfc7c0;"/><path d="M125.568,268.701c6.084,2.198 44.073,13.099 7.099,25.359c-7.145,2.369 -24.96,5.376 -24.99,5.35c-0.889,-0.788 -0.799,-2.35 -1.689,-3.138c24.416,-3.956 6.543,-19.374 8.214,-22.504c1.626,-3.045 4.034,0.847 11.365,-5.067Z" style="fill:#cfc8c1;"/><path d="M25.014,268.714c4.746,3.65 4.926,3.31 10.918,4.197c0.473,6.871 -11.908,14.035 2.143,22.218c-0.851,0.676 -0.892,2.08 -1.742,2.756c-0.541,0.43 -19.786,-4.348 -24.623,-6.414c-27.8,-11.876 9.852,-21.451 13.304,-22.757Z" style="fill:#d0cac3;"/><path d="M95.901,121.071c-0.035,0.124 -1.051,5.755 -3.435,8.152c-6.702,6.739 -14.314,-1.679 -14.509,-1.735c-7.354,-2.114 -8.84,4.453 -13.455,4.772c-8.43,0.582 -10.179,-10.501 -10.809,-11.67c-2.433,-4.517 6.518,-4.943 17.286,-8.068c9.077,-2.634 11.422,2.329 23.277,4.482c4.457,0.81 1.76,3.117 1.645,4.067Z" style="fill:#745e4f;"/><path d="M93.849,215.466c12.4,-11.872 29.288,-5.449 24.647,6.362c-3.296,4.059 -3.495,3.772 -7.501,7.213c-0.483,-0.221 -0.883,1.04 -1.366,0.819c-3.449,-1.58 -1.715,-2.641 0.334,-5.781c1.881,-2.883 -2.388,-3.173 -5.335,2.02c-0.175,0.309 -0.158,0.289 -2.13,3.901c-1.898,0.061 -1.851,0.165 -3.444,-0.665c-4.172,-0.855 -4.832,-1.012 -5.02,-5.296c1.079,-1.695 0.762,-1.833 2.091,-3.284c0.213,-0.232 2.427,-2.65 1.893,-3.456c-0.201,-0.304 -0.305,-0.134 -4.169,-1.832Z" style="fill:#d1a586;"/><path d="M89.41,69.773c-0.445,-0.606 -4.272,-5.817 3.077,-8.886c0.197,-0.082 6.957,-1.536 8.557,-1.546c19.685,-0.119 26.291,24.014 11.566,17.159c-6.358,-2.96 -6.212,-3.126 -13.176,-4.167c-5.208,-0.683 -5.175,-0.495 -10.024,-2.56Z" style="fill:#735745;"/><path d="M60.704,69.35c-6.122,2.847 -6.267,2.048 -12.854,3.168c-9.478,2.582 -19.959,10.184 -18.191,0.55c3.606,-19.658 40.74,-15.175 31.046,-3.719Z" style="fill:#6e5241;"/><path d="M53.664,213.372c-1.17,2.615 -3.25,3.304 2.125,10.707c0.098,3.269 0.434,4.156 -2.839,4.684c-1.46,-6.681 -4.649,-9.297 -5.01,-9.474c-4.41,-2.168 -0.639,1.936 2.261,10.367c-1.843,0.623 -1.81,0.487 -3.744,0.245c-11.629,3.177 -17.432,-12.119 -16.41,-14.005c1.314,-2.424 7.714,-8.894 15.957,-6.174c0.09,0.03 0.008,-0.004 7.66,3.649Z" style="fill:#d3a78a;"/><path d="M54.499,204.814c25.989,6.723 52.686,-3.643 44.351,2.627c-2.923,2.199 -3.512,0.98 -6.185,3.284c-2.385,2.056 -1.283,6.26 -19.863,5.405c-12.429,-0.572 -12.091,-2.193 -15.119,-5.021c-0.765,-0.715 -9.377,-4.854 -6.377,-6.896c0.215,-0.146 0.231,0.044 3.194,0.601Z" style="fill:#604f3f;"/><path d="M89.209,164.45c-1.428,6.843 -14.758,23.035 -16.269,24.871c-8.247,10.017 -7.083,12.568 -13.247,12.346c-4.098,-0.148 -3.653,-2.259 -3.898,-2.557c1.123,-1.566 6.594,-9.195 14.205,-19.461c13.864,-17.728 15.952,-15.761 19.209,-15.198Z" style="fill:#7a6b50;"/><path d="M114.188,232.139c2.298,-2.118 3.887,-4.99 6.03,-2.601c6.04,6.735 4.216,34.777 0.617,37.355c-2.676,1.917 -15.164,3.376 -16.505,3.533c10.587,-9.918 10.328,-10.184 10.768,-11.17c7.322,-16.434 0.415,-25.397 -0.91,-27.116Z" style="fill:#6c5c44;"/><path d="M138.868,189.249c0.306,2.099 2.099,14.392 0.311,26.516c-2.597,17.605 -5.725,16.202 -6.639,16.799c0.214,-1.153 0.427,-2.306 0.641,-3.459c-0.713,-4.525 -0.35,-5.074 -6.594,-12.475c3.772,-5.582 3.912,-5.477 4.694,-7.349c6.849,-16.384 4.745,-17.053 5.484,-18.4c0.427,-0.778 1.676,-0.855 2.103,-1.633Z" style="fill:#6f5f47;"/><path d="M35.056,231.717c-6.954,9.629 -4.934,10.474 -3.509,22.129c0.468,3.826 1.168,3.638 1.437,3.5c0.353,-0.181 0.268,-0.252 3.613,-3.401c0.85,7.464 0.992,7.37 1.405,14.936c-0.806,-0.182 -8.751,-1.975 -9.697,-3.546c-1.823,-3.029 -6.763,-45.834 6.751,-33.617Z" style="fill:#6e5e46;"/><path d="M140.758,86.362c-3.602,-5.187 -4.732,-1.579 -10.122,1.807c0.843,-5.522 0.038,-6.519 5.117,-8.776c0.459,-0.204 3.352,-1.49 6.219,0.869c13.981,11.504 -13.069,39.9 -13.335,27.679c-0.242,-11.102 1.882,-10.75 2.342,-11.514c0.4,0.335 1.12,0.036 1.52,0.372c0,0 0.365,3.776 0.397,4.104c0.255,0.372 -0.486,0.961 -0.231,1.333c0,0 1.675,-0.182 1.82,-0.198c1.753,-1.73 1.681,-1.727 2.232,-4.209c3.2,-2.768 3.694,-2.392 4.348,-4.757c0.647,-2.343 0.217,-2.306 -0.307,-6.708Z" style="fill:#d4a889;"/><path d="M10.897,194.197c0.944,1.044 2.143,-0.01 3.183,3.521c3.156,10.714 8.745,17.58 9.82,18.902c-4.537,5.328 -4.108,5.531 -6.552,10.563c-0.814,1.068 -1.627,2.136 -2.441,3.205c-7.382,-17.946 -4.54,-33.326 -4.011,-36.19Z" style="fill:#6e5e46;"/><path d="M45.361,51.842c15.009,-9.574 16.552,2.481 32.465,-0.26c6.116,-1.053 19.122,-6.094 25.866,-0.96c1.187,0.904 0.053,3.987 -2.501,3.226c-4.39,-1.309 -4.42,-2.993 -13.383,-0.46c-22.054,6.232 -29.387,-2.754 -34.912,-1.181c-1.137,0.323 -2.158,0.979 -3.287,1.328c-2.451,0.758 -2.281,-0.147 -4.248,-1.692Z" style="fill:#a27457;"/><path d="M91.507,120.852c-0.133,1.44 0.323,4.342 -2.433,6.527c-1.455,1.154 -4.66,0.944 -5.618,0.03c-3.635,-3.469 -3.894,-3.261 -8.888,-3.325c-8.008,-0.102 -6.679,3.625 -9.843,4.302c-5.083,1.088 -6.22,-4.863 -6.346,-5.524c-1.254,-6.558 4.751,-1.237 17.812,-1.318c8.022,-0.05 8.359,-4.57 15.317,-0.692Z" style="fill:#d4aa8a;"/><path d="M9.076,86.379c4.357,2.818 6.833,2.244 5.292,8.162c-0.774,3.528 -0.713,3.465 0.294,6.841c0.768,0.382 4.374,3.61 2.451,-1.067c0.237,-0.94 -0.34,-0.872 -0.121,-1.742c0.696,-2.763 2.089,-1.669 2.484,-1.985c0.435,1.022 5.432,12.744 1.222,13.827c-5.439,1.399 -12.078,-7.945 -12.803,-8.964c0.086,-0.123 3.593,-0.787 1.92,-5.152c-2.287,-5.968 -1.252,-6.029 -0.739,-9.921Z" style="fill:#c09176;"/><path d="M69.606,257.787c-2.454,0.699 -12.349,4.213 -11.092,-0.044c0.699,-2.366 3.014,0.886 27.588,-13.779c7.787,-4.647 3.009,2.66 2.793,2.899c-5.18,5.751 -17.625,10.313 -19.29,10.924Z" style="fill:#6c5d40;"/><path d="M88.4,221.964c-1.546,1.137 -0.782,1.75 -2.292,2.861c-0.107,0.079 -0.369,0.271 -1.659,0.046c-0.577,-0.101 -1.057,-0.639 -1.642,-0.622c-3.299,0.096 -3.283,3.749 -21.52,-0.136c0.128,-0.395 1.596,-4.933 1.596,-4.933c1.733,-0.676 1.795,1.463 23.248,0.537c1.85,-0.08 1.594,0.514 2.269,2.247Z" style="fill:#685943;"/><path d="M64.635,44.262c-5.852,-1.462 -5.971,-1.185 -6.313,-1.577c-0.085,-0.098 -0.062,-2.145 0.026,-2.245c0.819,-0.932 10.307,0.862 11.19,1.029c10.538,1.993 23.018,-5.457 26.019,-1.205c2.725,3.86 -1.644,1.487 -6.255,2.415c-12.275,2.472 -12.232,3.375 -24.668,1.583Z" style="fill:#a37553;"/><path d="M9.076,86.379c-0.513,3.892 -1.549,3.953 0.739,9.921c1.673,4.365 -1.834,5.029 -1.92,5.152c-0.677,-1.445 -6.238,-13.308 -1.207,-19.912c3.497,-4.591 12.269,-2.776 12.621,4.764c0.213,4.568 -1.864,-0.605 -6.116,-2.106c-2.527,-0.892 -2.305,0.302 -4.116,2.181Z" style="fill:#dcb193;"/><path d="M125.512,60.099c6.031,-2.352 6.241,-1.334 12.186,1.419c-0.449,4.686 -0.267,12.705 -3.61,14.674c-4.452,2.621 -1.533,-4.83 -6.773,-12.828c-1.069,-1.631 -0.897,-1.625 -1.803,-3.265Z" style="fill:#b19e91;"/><path d="M24.558,59.698c-5.62,11.437 -4.538,11.738 -5.537,16.404c-0.404,1.89 -4.96,-0.677 -5.29,-1.742c-0.862,-2.781 -0.507,-2.702 -1.042,-12.755c5.806,-2.154 5.737,-2.689 11.869,-1.907Z" style="fill:#b09d8f;"/><path d="M35.056,231.717c1.635,1.856 2.508,1.497 2.338,4.03c-0.613,9.111 -1.078,9.025 -0.797,18.198c-3.346,3.149 -3.26,3.22 -3.613,3.401c-0.269,0.138 -0.969,0.326 -1.437,-3.5c-1.425,-11.655 -3.445,-12.5 3.509,-22.129Z" style="fill:#857758;"/><path d="M41.487,70.33c-2.811,1.268 -12.26,6.792 -6.067,-1.726c7.599,-10.453 34.85,-2.721 15.831,-0.609c-5.102,0.567 -5.006,0.715 -9.764,2.335Z" style="fill:#dccfc3;"/><path d="M31.147,145.382c0.817,-0.204 1.14,-1.392 1.957,-1.596c1.461,-0.366 4.163,5.861 8.141,6.11c6.155,0.385 7.822,5.824 13.816,13.987c-0.842,0.063 -1.294,1.299 -2.136,1.362c-1.136,0.085 -20.082,-18.224 -21.778,-19.863Z" style="fill:#6e5e47;"/><path d="M104.25,68.711c-9.043,-0.934 -8.986,-0.922 -9.767,-1.009c-3.519,-0.393 -3.207,-2.867 0.157,-3.923c15.346,-4.821 27.536,11.661 19.685,9.262c-5.26,-1.607 -4.773,-2.556 -10.075,-4.33Z" style="fill:#ded0c2;"/><path d="M104.526,192.606c-4.043,9.53 -5.642,10.056 -26.704,10.067c1.176,-0.962 0.55,-1.347 1.649,-2.247c0.107,-0.087 0.303,-0.248 1.659,-0.462c8.49,-1.336 8.206,-1.946 16.416,-4.578c3.949,-1.266 4.26,-4.472 4.671,-4.505c0.958,-0.076 1.351,1.801 2.309,1.724Z" style="fill:#6d5c44;"/><path d="M112.114,148.723c-0.023,0.285 1.853,1.405 -0.267,3.368c-0.412,0.381 -0.354,0.375 -4.839,5.075c-0.795,0.779 -8.182,8.02 -10.945,8.587c-0.684,0.14 -1.401,-0.33 -2.085,-0.19c1.82,-3.128 1.551,-3.2 3.984,-5.981c6.116,-6.991 5.071,-8.917 14.153,-10.859Z" style="fill:#6d5c44;"/><path d="M104.425,97.432c-5.182,-1.043 -5.368,-0.414 -9.761,-3.276c-6.87,-4.477 -4.254,-6.042 -3.703,-6.22c0.551,-0.178 0.511,0.055 5.431,2.896c10.961,6.328 16.015,-0.208 17.764,2.29c0.488,0.698 1.819,4.059 -9.731,4.311Z" style="fill:#a57659;"/><path d="M96.271,154.594c-4.468,4.949 -5.156,4.633 -11.634,3.324c1.213,-8.609 9.108,-18.836 8.09,-10.171c-0.516,4.394 -0.49,5.021 3.544,6.848Z" style="fill:#ad9b8d;"/><path d="M44.648,93.238c6.91,-0.537 6.591,-1.458 12.776,-4.5c9.394,-4.62 -6.106,13.987 -19.327,7.407c-9.514,-4.735 5.981,-2.971 6.551,-2.907Z" style="fill:#9d7053;"/><path d="M54.179,154.832c0.94,-0.38 1.124,-1.854 2.064,-2.234c0.083,-0.034 2.746,1.93 2.654,-1.749c-0.007,-0.284 -0.072,-2.861 -0.103,-3.549c-0.069,-1.529 1.901,-2.747 3.553,0.772c0.129,0.274 0.016,0.187 1.465,3.493c0.369,0.841 0.534,1.782 1.023,2.559c0.326,0.518 1.254,0.627 1.363,1.229c0.18,0.992 -0.783,1.971 -0.604,2.963c-9.953,1.366 -10.219,-2.411 -11.415,-3.483Z" style="fill:#ae9d90;"/><path d="M46.349,274.899c8.901,0.414 15.703,0.342 15.717,2.365c0.016,2.401 -8.123,0.2 -12.298,1.814c-0.702,0.272 -8.648,3.344 -8.682,-3.64c-0.005,-1.096 0.395,-1.511 5.264,-0.54Z" style="fill:#beafa4;"/><path d="M54.624,84.283c-7.12,-0.435 -6.953,0.621 -11.676,1.947c-3.616,1.015 -4.306,-2.17 -1.071,-4.082c10.619,-6.278 22.674,1.583 12.747,2.135Z" style="fill:#4d2c1b;"/><path d="M140.758,86.362c-1.253,0.981 -2.961,1.264 -4.215,2.245c-4.251,3.327 -1.625,4.203 0.174,9.22c-0.551,2.482 -0.48,2.479 -2.232,4.209l-1.59,-1.135c-0.032,-0.328 -0.397,-4.104 -0.397,-4.104c-0.4,-0.335 -1.12,-0.036 -1.52,-0.372c1.082,-4.115 0.723,-4.13 -0.343,-8.257c5.39,-3.385 6.52,-6.994 10.122,-1.807Z" style="fill:#78523e;"/><path d="M70.637,91.184c5.876,8.582 7.8,6.875 8.834,7.713c0.794,0.644 0.878,1.927 1.672,2.571c-16.791,5.623 -12.074,-5.196 -10.507,-10.284Z" style="fill:#c89476;"/><path d="M104.318,274.892c5.895,-0.902 3.921,2.122 3.717,2.412c-2.424,3.459 -2.819,4.297 -6.608,2.452c-7.028,-3.422 -11.508,0.328 -13.127,-1.491c-2.396,-2.691 3.972,-2.813 16.018,-3.373Z" style="fill:#bfaea5;"/><path d="M99.418,84.099c-1.133,-0.059 -2.27,0.026 -3.404,-0.033c-13.104,-0.679 5.881,-8.464 13.295,-1.008c5.826,5.859 -9.614,1.095 -9.891,1.041Z" style="fill:#52311d;"/><path d="M29.067,103.423c0.896,0.063 0.987,-1.342 3.583,0.253c2.227,1.368 4.4,-0.059 8.567,12.681c-3.045,-0.657 -4.68,0.604 -12.15,-12.934Z" style="fill:#af856d;"/><path d="M61.11,163.138c0.612,0.233 1.156,-0.821 7.93,4.917c0.792,0.98 1.585,1.961 2.377,2.941c-1.585,2.603 -1.59,2.514 -3.619,4.815c-4.335,-5.729 -4.601,-5.39 -8.318,-11.485l1.63,-1.189Z" style="fill:#6a5a48;"/><path d="M25.102,221.303l2.194,1.305l0.46,1.489l0.375,1.675c-7.755,9.184 -9.605,6.963 -13.223,4.615c0.814,-1.068 1.627,-2.136 2.441,-3.205c1.051,-0.347 1.573,2.382 2.624,2.035c0.716,-0.237 0.499,-0.464 5.129,-7.914Z" style="fill:#5c4c3e;"/><path d="M119.762,104.923c-0.435,0.886 -4.911,10.005 -6.777,10.315c-0.604,0.1 -1.191,-0.49 -1.795,-0.39c0.35,-5.751 -1.194,-6.552 3.177,-10.18c0.355,-0.294 3.185,-1.759 3.265,-1.727c0.899,0.364 1.231,1.617 2.13,1.981Z" style="fill:#ae836b;"/><path d="M35.804,288.414c0.453,0.009 0.162,-1.222 0.616,-1.213c0.821,0.017 0.146,2.214 9.925,2.608c4.836,0.195 9.193,-2.183 9.912,-2.576c11.752,-6.415 -9.319,13.697 -20.453,1.181Z" style="fill:#776656;"/><path d="M126.586,216.63c6.244,7.401 5.882,7.949 6.594,12.475c-0.269,-0.026 -3.36,-0.321 -3.36,-0.321c-2.919,-3.95 -2.356,-4.232 -5.551,-8.037c0.772,-1.372 1.545,-2.744 2.317,-4.117Z" style="fill:#3f2f22;"/><path d="M124.27,220.747c3.195,3.804 2.632,4.087 5.551,8.037c0,0 3.091,0.296 3.36,0.321c-0.214,1.153 -0.427,2.306 -0.641,3.459c-6.349,-2.172 -6.481,-2.152 -10.802,-7.33c0.844,-1.496 1.688,-2.991 2.531,-4.487Z" style="fill:#604f40;"/><path d="M116.116,183.117c0.741,-0.242 8.011,-2.611 9.585,-1.76c4.607,2.492 -1.025,2.428 -12.531,6.851c-1.074,-2.062 -0.688,-2.1 -1.772,-4.153c2.445,-0.123 2.336,-0.083 4.719,-0.938Z" style="fill:#453522;"/><path d="M140.758,86.362c0.524,4.401 0.955,4.365 0.307,6.708c-0.654,2.366 -1.148,1.989 -4.348,4.757c-1.799,-5.017 -4.425,-5.893 -0.174,-9.22c1.253,-0.981 2.961,-1.264 4.215,-2.245Z" style="fill:#bc8c73;"/><path d="M60.704,69.35c0.24,0.53 5.086,11.246 -4.545,5.67c-1.524,-0.882 -1.475,-0.867 -3.234,-0.891c-3.283,-0.044 -2.929,-0.93 -5.075,-1.611c6.587,-1.12 6.732,-0.322 12.854,-3.168Z" style="fill:#b88c74;"/><path d="M38.289,186.081l-1.006,2.247c-9.158,-3.432 -15.722,-4.797 -12.329,-6.96c3.32,-2.117 12.4,4.076 13.335,4.713Z" style="fill:#4c3c25;"/><path d="M89.41,69.773c4.848,2.065 4.816,1.876 10.024,2.56c-3.124,1.761 -3.061,1.905 -3.37,1.9c-4.843,-0.065 -5.243,6 -7.969,1.995c-2.097,-3.08 -0.584,-3.255 1.316,-6.455Z" style="fill:#b68b72;"/><path d="M61.138,18.487c0.21,-0.873 2.061,-0.576 2.271,-1.449c0.306,-1.274 -0.805,-2.504 -1.009,-3.798c-0.046,-0.289 -0.49,-3.095 2.05,-3.027c1.174,0.031 3.159,9.066 3.338,9.881c-3.569,-0.025 -3.473,-0.127 -6.651,-1.607Z" style="fill:#ad9e93;"/><path d="M99.597,289.443c0.205,0.012 2.568,0.151 2.568,0.151c7.897,0.77 16.904,-4.001 10.53,0.866c-4.169,3.184 -14.295,0.8 -15.503,0.515c0.802,-0.511 1.604,-1.022 2.405,-1.532Z" style="fill:#776553;"/><path d="M53.664,213.372c0.821,0.594 6.398,2.581 2.125,10.707c-5.375,-7.403 -3.295,-8.092 -2.125,-10.707Z" style="fill:#9d7a67;"/><path d="M110.995,229.041c-3.928,1.898 -4.106,0.609 -8.497,0.959c1.972,-3.612 1.955,-3.592 2.13,-3.901c2.947,-5.194 7.216,-4.903 5.335,-2.02c-2.049,3.141 -3.783,4.201 -0.334,5.781c0.483,0.221 0.883,-1.04 1.366,-0.819Z" style="fill:#99715b;"/><path d="M110.915,179.291c4.737,-4.186 4.8,-5.43 6.313,-4.265c1.847,1.421 -3.736,5.624 -3.636,5.901c0.379,1.047 2.145,1.143 2.524,2.19c-2.383,0.855 -2.274,0.815 -4.719,0.938c-0.022,-0.382 -0.055,-0.312 -0.482,-4.764Z" style="fill:#6e5f47;"/><path d="M50.202,229.657c-2.9,-8.432 -6.671,-12.535 -2.261,-10.367c0.361,0.177 3.55,2.793 5.01,9.474c-0.916,0.298 -1.832,0.595 -2.749,0.893Z" style="fill:#8d644a;"/><path d="M52.811,102.821c6.223,-8.048 8.253,-5.66 8.054,-4.932c-0.085,0.312 -1.102,1.629 -1.207,1.765c-1.388,1.798 -0.897,1.952 -1.845,4.015c-0.252,0.103 -3.15,1.291 -3.15,1.291c-0.852,-0.405 -1,-1.735 -1.853,-2.14Z" style="fill:#a97f61;"/><path d="M88.011,18.765c-3.006,1.855 -3.041,1.718 -6.577,1.706c0.097,-0.62 1.627,-10.368 4.131,-6.672c0.2,0.295 0.237,1.2 0.241,1.306c0.137,3.38 1.549,2.571 2.206,3.66Z" style="fill:#b5a394;"/><path d="M97.635,285.757c-4.037,-2.088 -4.116,-1.944 -4.357,-2.253c-0.851,-1.092 -0.563,-1.307 0.637,-1.961c3.098,-1.688 15.501,7.36 3.721,4.215Z" style="fill:#af9d8c;"/><path d="M91.108,103.407c-0.374,-0.724 0.351,-1.72 -0.023,-2.444c-0.349,-0.675 -1.362,-0.727 -1.895,-1.269c-1.574,-1.601 0.018,-3.787 3.212,-1.272c2.28,1.795 2.062,1.921 4.015,4.073c-1.77,0.304 -3.54,0.608 -5.309,0.912Z" style="fill:#b08568;"/><path d="M79.936,118.283c-4.561,0.509 -4.448,-0.04 -9.051,0.082c-8.277,0.22 4.304,-4.79 8.377,-1.803c0.497,0.364 0.178,1.356 0.675,1.72Z" style="fill:#c8a791;"/><path d="M51.422,286.025c-12.367,2.228 3.129,-6.653 4.821,-3.888c1.533,2.506 -0.7,1.808 -4.821,3.888Z" style="fill:#af9d8e;"/><path d="M39.129,179.125c-0.148,1.126 -0.297,2.252 -0.445,3.378c-7.97,-5.946 -6.219,-7.498 -5.516,-7.797c1.877,-0.798 1.742,0.305 5.961,4.419Z" style="fill:#5c4d37;"/><path d="M93.849,215.466c3.864,1.698 3.967,1.528 4.169,1.832c0.534,0.806 -1.68,3.224 -1.893,3.456c-1.329,1.451 -1.012,1.589 -2.091,3.284c-2.051,-4.296 -2.789,-4.661 -0.185,-8.572Z" style="fill:#93715c;"/><path d="M12.739,54.847c0.636,-0.351 7.797,-4.295 8.167,-3.969c0.547,0.482 0.18,1.45 0.202,2.179c0.052,1.708 -7.526,3.241 -8.223,3.383l-0.146,-1.592Z" style="fill:#af9f92;"/><path d="M99.933,227.248c-0.566,-0.827 -1.844,-0.971 -2.41,-1.799c-0.124,-0.181 2.374,-4.685 3.337,-5.401c6.245,-4.644 -0.626,6.703 -0.927,7.199Z" style="fill:#956c51;"/><path d="M40.17,30.318c2.442,-0.973 2.817,-2.431 4.477,-0.388c1.602,1.971 -0.84,3.943 -1.108,4.159c-4.405,3.556 -3.426,-3.37 -3.369,-3.771Z" style="fill:#edc19d;"/><path d="M112.976,283.95c-6.536,5.543 -4.087,-3.232 -2.015,-3.657c2.669,-0.547 1.677,1.011 2.015,3.657Z" style="fill:#bba894;"/><path d="M14.368,94.541c1.553,0.374 0.491,1.741 2.021,2.11c1.049,0.253 0.147,-1.3 1.25,-1.322c0.742,-0.015 1.095,1.275 1.837,1.26c-0.395,0.316 -1.788,-0.779 -2.484,1.985c-0.219,0.87 0.358,0.802 0.121,1.742l-2.451,1.067c-1.007,-3.377 -1.068,-3.314 -0.294,-6.841Z" style="fill:#87624d;"/><path d="M37.402,284.246c-1.153,-3.511 1.252,-4.662 3.532,-1.849c0.201,0.248 2.515,5.974 -3.532,1.849Z" style="fill:#b9a791;"/><path d="M114.634,86.27c1.126,0.459 2.251,0.918 3.377,1.377c8.526,7.584 -2.678,1.834 -2.877,1.658c-0.184,-0.163 -0.036,-0.221 -0.499,-3.034Z" style="fill:#b88b6a;"/><path d="M83.338,66.272c0.032,0.283 0.599,11.243 -3.193,1.566c-1.002,-2.556 1.178,-4.254 2.643,-3.053c0.409,0.335 0.141,1.152 0.55,1.487Z" style="fill:#bc8e6c;"/><path d="M45.069,226.616c-0.029,-0.006 -2.274,1.741 -4.068,-0.789c-0.16,-0.225 -1.768,-2.494 -1.185,-3.245c1.778,-2.291 4.998,3.569 5.253,4.034Z" style="fill:#92674e;"/><path d="M114.634,86.27c0.026,-0.431 0.315,-5.291 4.476,-3.015c1.747,0.956 1.023,1.555 -0.526,2.72c-0.757,0.569 -0.251,0.732 -0.573,1.672c-1.126,-0.459 -2.251,-0.918 -3.377,-1.377Z" style="fill:#af8362;"/><path d="M34.847,86.463c-0.044,0.587 0.839,0.99 0.795,1.577c-0.217,2.899 -4.919,3.002 -5.414,3.013c0.079,-0.183 -0.89,-1.745 1.255,-2.892c0,0 3.095,-1.561 3.364,-1.697Z" style="fill:#b78967;"/><path d="M34.847,86.463c-4.27,-1.544 -4.477,-1.371 -4.57,-1.983c-0.323,-2.113 0.712,-1.526 2.743,-1.472c2.375,0.064 1.513,1.136 1.827,3.455Z" style="fill:#ae8160;"/><path d="M99.597,289.443c-0.802,0.511 -1.604,1.022 -2.405,1.532c-5.954,-2.297 -4.928,-3.958 -4.453,-3.928c0.58,0.037 0.506,0.177 6.859,2.396Z" style="fill:#6a5949;"/><path d="M133.824,52.594c-1.466,0.602 -0.011,1.819 -1.394,2.386c-0.211,0.087 -0.911,0.374 -2.775,-0.675c-0.314,-0.177 -1.708,-3.666 4.168,-1.711Z" style="fill:#b6a99b;"/><path d="M17.112,100.315c1.923,4.677 -1.683,1.449 -2.451,1.067l2.451,-1.067Z" style="fill:#986b53;"/><path d="M69.04,168.055c0.271,0.092 3.387,1.153 3.387,1.153c0.062,0.682 -1.071,1.107 -1.009,1.789c-0.792,-0.98 -1.585,-1.961 -2.377,-2.941Z" style="fill:#54453a;"/><path d="M61.11,163.138l-1.63,1.189c0.054,-1.581 -1.553,-2.448 0.081,-2.401c0.655,0.019 0.893,1.193 1.549,1.212Z" style="fill:#675549;"/><path d="M132.896,100.901l1.59,1.135c-0.146,0.016 -1.82,0.198 -1.82,0.198c-0.255,-0.372 0.486,-0.961 0.231,-1.333Z" style="fill:#9e6f56;"/></g></svg>